<?xml version="1.0" standalone="no"?>
<svg version="1.0" xmlns="http://www.w3.org/2000/svg"
 width="432.000000pt" height="577.000000pt" viewBox="0 0 432.000000 577.000000"
 preserveAspectRatio="xMidYMid meet">

<g transform="translate(0.000000,577.000000) scale(0.100000,-0.100000)"
fill="#000000" stroke="none">
<path d="M2152 5258 c0 -18 -6 -34 -11 -36 -16 -5 -13 -19 4 -26 8 -3 14 0 12
7 -1 8 11 12 33 12 28 0 35 -4 35 -20 0 -13 -8 -21 -21 -23 -26 -4 -40 -42
-20 -57 7 -5 15 -17 19 -25 5 -13 6 -13 6 1 1 8 -4 20 -11 27 -8 8 -8 15 -2
21 10 11 96 25 133 23 23 -2 24 -1 6 11 -11 9 -16 22 -13 34 4 16 1 18 -23 15
-22 -3 -29 0 -29 12 0 9 4 16 9 16 5 0 7 9 4 21 -4 12 -11 18 -20 15 -8 -3
-17 -6 -19 -6 -3 0 -2 -6 1 -12 4 -7 0 -5 -8 5 -15 18 -63 25 -52 6 4 -6 13
-8 21 -5 8 3 14 2 14 -3 0 -8 -32 -20 -52 -21 -4 0 -5 9 -3 20 2 11 0 20 -4
20 -4 0 -8 -15 -9 -32z m139 -65 c13 -16 12 -17 -3 -4 -10 7 -18 15 -18 17 0
8 8 3 21 -13z"/>
<path d="M2176 5195 c-4 -11 1 -15 19 -15 16 0 25 6 25 15 0 8 -9 15 -19 15
-10 0 -21 -7 -25 -15z"/>
<path d="M2297 5153 c-9 -2 -14 -9 -10 -15 4 -8 0 -9 -11 -5 -9 4 -15 3 -12
-2 3 -5 -1 -11 -9 -14 -9 -4 -12 -1 -8 10 4 11 1 14 -13 11 -11 -2 -17 -11
-15 -19 5 -21 4 -32 -5 -54 -7 -19 -7 -19 10 -2 11 10 33 17 57 17 37 0 39 -1
25 -16 -9 -8 -14 -20 -11 -25 4 -5 -2 -9 -12 -9 -19 0 -49 -38 -38 -48 3 -4
10 0 14 7 5 8 17 11 30 6 12 -4 21 -2 21 4 0 6 3 10 8 10 4 -1 23 -1 43 0 33
1 36 3 37 35 1 30 -1 33 -24 28 -16 -3 -22 -9 -17 -16 5 -7 -1 -2 -12 11 -12
13 -26 23 -32 23 -20 0 -25 20 -9 36 13 13 23 37 14 33 -2 -1 -11 -3 -21 -6z"/>
<path d="M2237 5050 c-22 -26 -22 -33 1 -21 9 5 25 12 35 15 10 3 15 10 12 16
-10 16 -29 12 -48 -10z"/>
<path d="M2100 4980 c0 -34 4 -60 10 -60 6 0 9 24 8 60 -4 78 -18 78 -18 0z"/>
<path d="M2011 4994 c0 -11 3 -14 6 -6 3 7 2 16 -1 19 -3 4 -6 -2 -5 -13z"/>
<path d="M2407 4993 c-13 -13 -19 -14 -29 -5 -14 14 -44 16 -52 3 -4 -5 4 -7
16 -4 21 5 21 4 -4 -16 -17 -13 -33 -19 -40 -14 -19 11 -39 13 -32 2 3 -5 10
-7 15 -4 12 8 12 -8 -1 -21 -6 -6 -6 -15 0 -24 7 -10 10 -11 10 -2 0 6 7 12
16 12 14 0 15 -2 3 -17 -13 -16 -12 -17 3 -5 10 8 23 10 30 6 9 -5 8 -2 -2 10
-14 17 -12 18 28 15 41 -4 49 2 43 35 -1 4 4 14 10 22 17 21 6 26 -14 7z"/>
<path d="M2077 4993 c-9 -9 -9 -41 1 -46 4 -3 7 8 7 24 0 16 0 29 -1 29 0 0
-4 -3 -7 -7z"/>
<path d="M2364 4886 c-6 -20 -15 -31 -26 -30 -9 1 -19 -7 -21 -17 -6 -24 0
-24 45 0 19 11 39 17 42 14 3 -4 6 3 6 15 0 21 14 35 38 38 34 6 18 12 -26 11
-46 -1 -50 -3 -58 -31z"/>
<path d="M2325 4778 c-70 -35 -72 -39 -63 -115 4 -38 9 -246 11 -464 1 -219 5
-395 8 -393 10 6 17 -79 9 -91 -9 -12 -7 -52 3 -61 4 -4 7 -14 6 -23 0 -12 -3
-11 -9 4 -6 12 -8 -31 -5 -115 5 -173 15 -281 26 -274 5 3 6 -1 4 -8 -3 -7 19
-37 50 -67 66 -64 62 -77 -22 -66 -32 5 -62 7 -68 5 -5 -2 -37 -6 -70 -9 l-60
-6 -3 -158 c-1 -97 2 -165 8 -177 10 -18 22 -20 123 -21 62 0 132 -4 157 -7
53 -8 52 9 22 -232 -30 -249 -25 -239 -122 -260 -30 -7 -61 -17 -67 -22 -12
-10 -31 20 -39 63 -2 9 -14 38 -27 65 -14 27 -33 69 -43 93 -11 24 -35 78 -56
120 -20 42 -32 78 -26 80 5 2 -1 14 -13 27 -29 31 -31 64 -5 88 20 18 20 19 1
11 -11 -4 -25 -8 -32 -8 -7 0 -10 -3 -8 -7 7 -11 -141 -12 -162 -2 -10 5 -40
19 -66 32 -26 13 -53 32 -58 42 -6 10 -14 16 -20 13 -5 -4 -9 0 -9 8 0 14 -14
47 -51 120 -10 22 -19 50 -19 64 0 18 -5 24 -17 21 -11 -2 -17 -11 -15 -22 2
-9 -2 -24 -8 -31 -7 -8 -9 -18 -6 -24 4 -5 -4 -13 -16 -17 -13 -4 -37 -17 -54
-30 -17 -13 -36 -24 -42 -24 -7 0 -12 -8 -12 -17 0 -9 -3 -13 -7 -10 -17 18
-33 -19 -33 -77 0 -33 4 -56 8 -50 11 16 105 77 119 77 7 0 10 3 8 7 -6 9 6
22 42 48 39 27 43 27 43 3 0 -22 23 -44 35 -33 5 4 5 2 1 -5 -11 -20 24 -63
72 -85 l45 -21 -30 -26 c-16 -14 -22 -21 -14 -16 16 11 16 9 -20 -115 -11 -41
-32 -122 -44 -180 -13 -58 -31 -136 -40 -173 -17 -68 -17 -68 -38 -50 -12 10
-27 24 -33 32 -8 11 -12 4 -17 -30 -3 -25 -9 -53 -13 -62 -4 -12 5 -27 30 -49
37 -33 34 -48 -8 -48 -11 0 -28 -8 -39 -18 -15 -12 -18 -13 -12 -2 4 8 -4 4
-19 -10 -32 -29 -66 -90 -66 -120 0 -27 18 -26 22 3 2 17 9 22 31 22 15 -1 27
2 27 5 0 9 61 33 67 26 4 -3 -1 -40 -11 -81 -10 -41 -20 -94 -22 -118 -3 -23
-9 -55 -14 -72 -8 -27 -15 -65 -25 -138 -2 -12 -8 -44 -15 -72 -23 -101 -49
-249 -45 -253 2 -3 -1 -14 -7 -26 -6 -11 -13 -32 -14 -46 -7 -53 -28 -145 -35
-150 -4 -3 -9 -25 -11 -49 -2 -35 -7 -45 -23 -47 -11 -1 -40 -6 -65 -9 -87
-12 -160 -37 -160 -54 0 -39 21 -89 40 -94 11 -3 22 -1 25 3 3 5 24 11 48 15
23 3 55 9 71 12 l28 5 -7 -63 c-4 -35 -13 -93 -21 -129 -8 -36 -14 -70 -14
-75 0 -14 84 -105 98 -105 6 0 16 26 22 58 6 31 13 66 16 77 2 11 11 58 19
105 9 47 18 97 21 113 6 30 29 57 47 57 8 0 7 -3 -2 -9 -28 -18 7 -18 79 0 41
11 145 29 230 40 85 11 182 25 215 30 33 5 100 12 149 15 l88 7 -5 -39 c-4
-21 -9 -81 -13 -133 -3 -51 -10 -88 -14 -81 -4 7 -9 8 -11 3 -4 -8 -293 -175
-409 -235 -25 -13 -47 -26 -50 -29 -3 -4 -27 -17 -54 -30 -81 -40 -86 -43 -86
-56 0 -7 6 -13 13 -14 42 -2 112 -28 79 -29 -20 0 -122 29 -159 46 -17 8 -36
14 -42 14 -20 0 -146 69 -174 96 -27 25 -29 25 -43 8 -14 -18 -15 -18 -5 2 8
17 5 25 -17 46 -30 27 -71 57 -60 44 4 -5 3 -15 -3 -22 -7 -8 -6 -14 2 -20 7
-4 9 -3 5 4 -3 6 -2 13 3 16 5 3 12 -1 15 -10 3 -9 11 -12 18 -8 8 5 9 2 5
-10 -4 -10 -7 -20 -7 -23 0 -3 -8 1 -17 8 -10 7 -3 -3 15 -22 18 -19 29 -39
25 -44 -5 -4 -3 -5 4 -1 6 3 16 -2 22 -11 6 -10 11 -14 11 -10 0 4 9 3 20 -3
11 -6 17 -16 14 -22 -4 -6 -3 -8 4 -4 6 3 18 -2 28 -11 10 -10 19 -16 20 -13
2 3 12 -3 24 -12 11 -10 20 -15 20 -12 0 4 7 1 15 -6 8 -7 15 -9 15 -6 0 4 10
1 23 -6 12 -6 27 -13 34 -14 6 -1 19 -7 30 -13 16 -9 15 -10 -10 -11 -16 0
-26 -4 -23 -9 9 -14 -4 -41 -20 -41 -8 0 -11 -6 -7 -17 4 -9 2 -14 -3 -11 -5
4 -10 -5 -10 -18 -1 -13 0 -24 3 -24 9 0 39 35 69 82 17 26 33 45 36 42 3 -3
18 -7 33 -10 16 -3 35 -9 44 -13 17 -9 81 -14 174 -15 31 -1 57 -4 57 -8 0 -5
39 -7 88 -6 l87 1 -85 8 c-47 5 -94 10 -105 12 -11 3 -23 5 -27 6 -20 3 9 32
60 60 31 18 71 41 87 51 17 11 40 25 53 31 12 7 22 16 22 22 0 5 11 6 24 3 19
-5 26 -1 31 12 6 21 51 46 66 37 5 -3 6 -25 3 -48 -2 -23 -7 -57 -9 -76 -3
-19 0 -40 6 -48 8 -9 8 -13 0 -13 -6 0 -11 -11 -11 -24 0 -29 33 -38 93 -24
23 5 116 8 207 7 203 -4 372 11 385 32 3 4 13 5 22 2 10 -4 14 -2 10 4 -4 6 0
14 9 17 10 4 13 2 8 -6 -5 -8 -1 -9 12 -4 10 4 48 14 84 22 59 13 167 58 180
75 3 3 20 14 38 23 53 27 142 109 142 130 0 6 23 36 51 66 78 84 102 142 121
287 9 72 9 115 -1 200 -17 156 -33 234 -55 269 l-19 31 -39 -20 c-23 -13 -37
-26 -34 -34 8 -19 -9 -16 -25 4 -8 9 -9 14 -3 10 16 -10 42 26 34 49 -4 10 -5
22 -3 27 6 10 -18 4 -33 -8 -6 -5 -9 -17 -7 -25 3 -9 0 -7 -7 3 -10 16 -8 21
8 33 24 17 22 49 -3 49 -10 0 -20 5 -22 12 -3 8 6 11 24 10 21 -1 27 2 24 13
-2 8 -5 29 -6 45 -4 46 -4 47 -15 40 -5 -3 -7 0 -4 9 3 9 -5 26 -19 40 -14 14
-22 28 -18 32 3 4 -3 4 -13 0 -16 -6 -17 -4 -6 9 11 13 11 16 -1 13 -8 -2 -13
4 -13 15 1 9 -2 17 -8 17 -5 0 -7 4 -3 9 3 5 1 12 -5 16 -6 4 -8 11 -5 16 4 5
2 9 -2 9 -5 0 -19 20 -31 46 -14 28 -27 42 -34 38 -6 -4 -8 -3 -5 4 9 14 -3
43 -14 36 -5 -3 -6 2 -3 11 4 9 0 23 -8 33 -27 31 -106 205 -128 282 -12 41
-25 82 -28 90 -9 20 -8 207 2 245 4 17 12 40 17 53 39 95 45 116 64 221 10 56
15 114 11 145 -3 29 -2 43 3 31 6 -16 9 -12 14 20 9 55 7 116 -4 140 -6 14 -8
1 -4 -42 2 -38 0 -63 -6 -63 -5 0 -9 6 -8 13 1 6 1 33 0 60 -1 34 -5 47 -15
47 -8 0 -17 -8 -20 -17 -3 -10 -21 -35 -40 -57 -20 -21 -34 -41 -33 -45 3 -12
-36 -61 -49 -61 -7 0 -21 15 -30 33 -17 32 -17 32 4 14 20 -18 21 -18 31 0 6
10 11 14 11 9 0 -5 9 3 21 18 25 32 18 40 -58 75 -29 14 -53 28 -53 32 0 10
15 5 82 -28 26 -13 57 -23 68 -23 23 0 44 34 37 61 -3 12 -1 17 5 13 6 -4 9
-1 6 7 -2 8 -24 20 -49 27 -24 7 -66 20 -93 28 -26 7 -59 14 -72 14 -19 0 -24
5 -24 25 0 22 4 25 33 25 18 0 39 -6 46 -12 10 -9 12 -9 7 -1 -5 9 14 11 73 9
l80 -3 -16 27 c-20 35 -61 49 -151 52 -55 2 -71 6 -67 16 3 8 5 18 5 23 0 6 4
8 8 5 11 -7 31 32 30 57 -1 13 -7 17 -20 14 -10 -3 -16 -1 -12 4 7 11 -9 12
-22 0 -5 -4 -30 -15 -56 -24 -35 -11 -48 -12 -52 -4 -3 9 -9 8 -18 -3 -20 -22
-38 -23 -38 0 0 14 5 18 18 13 15 -6 15 -5 3 10 -18 23 -67 22 -76 0 -27 -65
-17 -149 23 -211 22 -34 29 -191 9 -230 -13 -28 -13 -31 1 -37 13 -5 14 -8 3
-14 -10 -6 -9 -10 4 -15 9 -3 25 -6 36 -6 10 0 47 -19 81 -42 35 -23 65 -43
66 -44 2 -2 -8 -20 -22 -41 -28 -40 -33 -57 -15 -51 6 2 9 6 7 8 -2 3 7 16 20
30 12 13 22 32 22 42 0 11 5 16 10 13 13 -8 13 -62 1 -67 -5 -1 -11 -9 -13
-17 -2 -8 -15 -27 -30 -43 -16 -15 -28 -34 -28 -43 0 -9 -11 -36 -25 -61 -23
-40 -34 -81 -38 -141 -1 -12 -5 -25 -9 -29 -5 -4 -8 -25 -8 -46 0 -21 -4 -38
-10 -38 -5 0 -7 -7 -4 -15 9 -21 -25 -19 -43 3 -13 16 -14 16 -8 -4 4 -17 -3
-23 -55 -38 -34 -10 -64 -16 -67 -12 -6 6 3 151 30 471 l12 140 -33 23 c-18
12 -38 20 -43 17 -13 -9 -11 39 2 52 14 14 -32 79 -62 88 -11 4 -17 11 -14 16
4 5 2 9 -3 9 -17 0 -26 120 -67 845 -8 143 -19 316 -24 385 -27 336 -25 407
18 433 36 22 15 19 -34 -5z m501 -1362 c7 -8 19 -16 26 -19 7 -2 11 -7 8 -10
-8 -8 -53 15 -58 31 -5 16 6 15 24 -2z m-653 -359 c-3 -5 -10 -4 -15 1 -6 6
-7 16 -3 22 6 9 9 9 16 -1 4 -7 5 -17 2 -22z m263 15 c1 -7 0 -8 -3 -2 -9 19
-24 10 -18 -11 6 -19 5 -20 -8 -8 -8 8 -12 20 -9 27 6 16 34 12 38 -6z m-221
-21 c-3 -6 -11 -11 -16 -11 -5 0 -4 6 3 14 14 16 24 13 13 -3z m236 -4 c-10
-9 -11 -8 -5 6 3 10 9 15 12 12 3 -3 0 -11 -7 -18z m413 -8 c7 -8 17 -119 11
-119 -3 0 -31 16 -62 36 -31 20 -66 40 -77 44 -12 5 -15 9 -8 9 7 1 23 10 35
22 17 15 31 19 60 16 21 -3 39 -6 41 -8z m-359 -19 c3 -5 1 -10 -4 -10 -6 0
-11 5 -11 10 0 6 2 10 4 10 3 0 8 -4 11 -10z m602 -42 c-3 -8 -6 -5 -6 6 -1
11 2 17 5 13 3 -3 4 -12 1 -19z m-770 -52 c-22 -24 -38 -26 -36 -3 0 8 2 8 6
-1 4 -10 9 -8 20 7 8 12 18 21 23 21 5 0 -1 -11 -13 -24z m754 -49 c4 4 10 22
12 38 3 17 4 -5 2 -48 -2 -84 -10 -102 -29 -75 -7 10 -16 14 -20 10 -4 -4 -6
-2 -5 3 4 12 -32 75 -41 70 -8 -5 -11 45 -4 57 4 5 22 -6 42 -26 19 -20 39
-33 43 -29z m-1516 43 c3 -6 -1 -7 -9 -4 -18 7 -21 14 -7 14 6 0 13 -4 16 -10z
m615 -110 c0 -5 -5 -10 -11 -10 -5 0 -7 5 -4 10 3 6 8 10 11 10 2 0 4 -4 4
-10z m241 -19 c-9 -6 -11 -16 -7 -27 7 -18 6 -18 -10 -2 -18 18 -11 38 14 38
14 0 14 -2 3 -9z m-257 -22 c-3 -5 -10 -7 -15 -3 -5 3 -7 10 -3 15 3 5 10 7
15 3 5 -3 7 -10 3 -15z m-212 -60 c-18 -4 -35 -9 -38 -11 -2 -3 5 -22 16 -44
24 -48 55 -120 65 -154 4 -14 11 -29 15 -35 4 -5 13 -28 20 -50 7 -22 21 -59
31 -82 10 -23 16 -49 12 -59 -4 -12 -3 -15 5 -10 7 4 12 1 12 -8 0 -8 -3 -16
-7 -19 -5 -2 -3 -2 4 -1 6 2 16 -10 21 -25 9 -27 9 -27 -57 -45 -72 -20 -156
-45 -254 -76 -89 -28 -90 -28 -83 23 3 23 6 57 6 76 -1 18 4 39 9 45 6 7 19
73 30 147 11 74 22 141 24 149 2 8 7 36 11 62 5 27 15 49 23 52 9 4 13 13 9
21 -3 9 0 24 6 34 9 15 20 18 48 14 21 -3 46 -1 56 5 10 5 25 7 33 4 11 -4 5
-8 -17 -13z m989 -390 c-5 -13 -10 -18 -10 -11 -1 7 -7 10 -13 7 -7 -4 -5 0 5
8 9 8 17 20 18 28 0 8 3 9 5 3 3 -6 0 -22 -5 -35z m-224 -71 c0 -24 -2 -35 -4
-26 -7 28 -31 10 -25 -18 3 -15 8 -21 12 -15 3 7 15 -14 25 -46 9 -32 22 -69
28 -83 6 -14 10 -29 9 -33 -1 -4 2 -16 7 -26 7 -12 6 -22 -2 -30 -9 -10 -8
-11 6 -5 13 5 16 2 11 -10 -3 -9 -1 -16 6 -16 6 0 9 -8 5 -19 -3 -11 1 -24 12
-32 14 -12 16 -12 8 0 -6 10 -4 12 4 6 7 -4 11 -16 8 -26 -3 -12 0 -19 9 -19
8 0 14 -4 14 -10 0 -20 2 -25 12 -38 6 -7 9 -14 7 -17 -5 -5 -239 -45 -263
-45 -9 0 -16 8 -16 18 -1 15 -2 15 -13 1 -7 -9 -18 -14 -24 -12 -7 3 -14 -4
-14 -14 -1 -16 -2 -16 -6 0 -2 9 -10 17 -17 17 -9 0 -9 -17 -1 -72 l10 -73 6
45 6 45 1 -58 2 -57 58 6 c31 3 64 8 72 11 13 4 223 39 275 46 28 3 30 -27 3
-42 -13 -6 -15 -9 -6 -7 10 3 20 1 23 -4 4 -6 12 -10 18 -10 8 0 8 3 -2 9 -7
5 -9 11 -4 14 5 3 14 -3 21 -14 9 -14 9 -18 1 -17 -7 2 -15 -9 -20 -24 -6 -22
-4 -28 8 -28 10 0 13 6 9 18 -5 14 -4 14 9 -2 14 -19 15 -19 15 5 0 15 6 26
13 26 14 0 15 -36 3 -56 -3 -5 -3 -16 0 -25 10 -26 36 8 30 39 -4 22 -3 25 9
15 8 -7 12 -16 9 -21 -3 -5 2 -9 10 -9 13 0 14 -3 4 -19 -7 -11 -15 -18 -19
-15 -4 2 -13 -4 -20 -14 -13 -15 -12 -16 4 -3 9 7 17 10 17 5 0 -5 7 0 15 10
15 19 15 19 15 -1 0 -11 7 -24 16 -27 9 -4 14 -9 11 -13 -4 -3 -2 -12 4 -20 6
-7 9 -22 6 -34 -3 -12 -3 -18 1 -14 10 10 64 -189 56 -209 -2 -6 -18 -17 -35
-25 -17 -7 -65 -33 -107 -57 -42 -24 -84 -42 -93 -41 -25 4 -160 127 -152 140
3 5 2 7 -4 4 -5 -4 -19 1 -29 11 -11 9 -57 50 -102 90 l-82 74 0 -64 c0 -35
-4 -69 -8 -75 -7 -12 -9 1 -11 99 0 15 -9 42 -19 60 -13 23 -20 57 -21 108 -2
90 -11 108 -11 22 0 -35 -4 -62 -10 -62 -5 0 -11 6 -12 13 -2 21 -5 31 -11 47
-5 13 -30 121 -44 191 -3 16 1 30 11 38 12 11 14 17 5 27 -8 10 -8 18 -1 27 7
8 7 18 2 27 -18 28 -12 42 11 29 13 -7 19 -7 15 -1 -3 6 3 14 15 17 18 6 20
12 15 43 -3 21 -6 51 -6 67 0 23 -2 27 -10 15 -6 -10 -8 -3 -3 23 4 30 1 45
-16 68 -21 29 -21 29 -1 29 16 0 20 7 21 33 0 17 4 40 8 51 8 21 64 43 134 52
39 5 48 11 53 30 9 34 11 30 11 -18z m-322 -117 c0 -22 -2 -36 -5 -32 -3 4
-38 7 -77 6 -70 -1 -72 0 -56 17 9 10 27 18 40 18 12 0 23 5 23 11 0 5 4 8 8
5 7 -4 66 8 67 13 0 1 0 -17 0 -38z m548 9 c3 -11 1 -18 -4 -14 -5 3 -9 12 -9
20 0 20 7 17 13 -6z m-503 -34 c0 -11 -19 -15 -25 -6 -3 5 1 10 9 10 9 0 16
-2 16 -4z m533 -31 c-3 -9 -8 -14 -10 -11 -3 3 -2 9 2 15 9 16 15 13 8 -4z
m-863 -151 l0 -156 -52 44 c-29 23 -58 47 -64 53 -10 9 -38 33 -132 111 -14
11 -22 26 -19 31 6 10 81 29 97 26 3 -1 37 9 75 22 39 13 76 24 83 25 9 0 12
-38 12 -156z m906 101 c17 -13 17 -14 2 -15 -9 0 -20 5 -23 10 -4 6 -10 8 -15
5 -5 -3 -11 -1 -15 5 -9 15 29 12 51 -5z m-586 1 c0 -2 -7 -6 -15 -10 -8 -3
-15 -1 -15 4 0 6 7 10 15 10 8 0 15 -2 15 -4z m537 -13 c20 -18 36 -60 48
-123 7 -33 6 -34 -9 -15 -8 11 -16 26 -16 33 0 7 -5 10 -10 7 -6 -4 -7 -11 -4
-17 4 -7 2 -8 -5 -4 -6 4 -9 12 -5 17 3 6 -2 19 -11 29 -14 15 -15 22 -4 42
11 20 10 22 -3 10 -13 -10 -17 -10 -21 3 -4 8 -3 14 1 14 19 -3 25 2 12 11 -8
5 -10 10 -4 10 7 0 20 -8 31 -17z m111 -59 c12 -20 22 -40 22 -45 0 -5 5 -9
11 -9 5 0 7 -4 4 -10 -3 -5 -1 -10 4 -10 6 0 11 -9 11 -20 0 -10 7 -23 16 -28
25 -14 7 -32 -32 -32 -34 0 -47 20 -23 35 7 5 4 15 -9 29 -15 17 -42 93 -42
120 0 16 17 1 38 -30z m-1336 -31 c23 -21 53 -49 68 -63 15 -14 50 -45 80 -70
29 -25 62 -53 74 -63 101 -88 130 -113 138 -118 11 -7 10 -14 -12 -146 -11
-63 -15 -73 -33 -73 -42 0 -57 -28 -57 -105 0 -42 5 -76 12 -83 8 -8 55 -12
143 -12 l132 0 -2 -34 c-1 -18 -5 -38 -9 -45 -4 -6 -3 -11 3 -11 5 0 9 -13 9
-28 -1 -27 -5 -29 -62 -40 -90 -16 -119 -23 -127 -27 -4 -3 -24 -7 -45 -10
-22 -3 -46 -8 -54 -11 -28 -11 -334 -53 -342 -48 -5 3 -15 1 -22 -5 -7 -6 -37
-13 -68 -17 -64 -7 -73 2 -57 61 17 61 36 194 27 189 -5 -3 -6 7 -2 23 9 36
14 42 14 15 0 -12 6 -22 14 -22 8 0 22 -7 31 -17 14 -14 18 -14 26 -2 6 10 9
8 9 -10 0 -20 2 -21 15 -11 12 10 16 9 21 -4 3 -9 10 -14 14 -11 5 3 12 -20
16 -51 6 -54 7 -55 33 -48 14 4 40 6 56 5 30 -1 30 -1 9 17 -12 9 -24 24 -27
32 -3 10 -6 6 -6 -8 -1 -16 -6 -22 -18 -20 -22 4 -29 28 -9 28 9 0 16 7 16 15
0 8 5 15 10 15 6 0 10 7 10 15 0 8 7 15 15 15 8 0 15 -4 15 -10 0 -5 7 -10 15
-10 14 0 21 -31 15 -69 -1 -13 1 -13 14 -2 9 7 14 17 11 21 -3 5 3 15 13 22
10 7 22 20 27 28 8 13 7 13 -8 1 -15 -12 -17 -11 -17 3 0 9 5 16 10 16 6 0 10
10 10 22 0 22 0 22 -14 2 -8 -11 -16 -31 -19 -44 -3 -14 -4 -3 -4 23 1 45 3
49 29 54 17 3 28 12 28 22 0 14 -2 14 -10 1 -8 -12 -10 -11 -10 6 0 13 8 24
20 27 11 3 20 11 20 19 0 10 -3 9 -10 -2 -7 -11 -10 -5 -10 23 0 34 7 43 33
38 5 -1 7 4 4 11 -2 7 -14 13 -26 12 -17 0 -21 5 -21 28 0 24 4 28 28 28 15 0
34 6 41 13 11 10 13 10 7 0 -4 -7 -3 -13 2 -13 5 0 12 9 15 20 5 19 2 20 -29
14 -26 -5 -34 -3 -34 9 0 13 60 31 83 24 16 -4 29 33 17 48 -6 8 -9 19 -5 26
4 6 1 15 -6 20 -20 12 -31 11 -23 -3 4 -7 -6 -3 -22 9 -26 19 -35 20 -89 11
-75 -11 -107 -38 -95 -76 17 -53 19 -122 4 -122 -8 0 -14 -7 -14 -16 0 -13 -6
-15 -27 -10 -19 5 -23 4 -14 -3 17 -11 7 -41 -13 -41 -8 0 -20 -13 -27 -28 -7
-15 -23 -33 -36 -39 -20 -10 -23 -9 -23 9 0 14 -5 18 -15 14 -18 -7 -21 20 -2
28 6 3 2 3 -10 0 -22 -5 -73 29 -73 49 0 6 9 2 19 -7 18 -17 19 -16 26 26 7
43 29 159 61 318 9 47 18 108 19 135 3 73 15 135 26 135 6 0 28 -17 51 -37z
m459 -40 c-5 -10 -9 -22 -9 -26 -1 -18 -12 -19 -18 -2 -5 12 -1 23 11 31 25
18 28 18 16 -3z m90 -16 c-10 -9 -11 -8 -5 6 3 10 9 15 12 12 3 -3 0 -11 -7
-18z m158 -11 c-2 -2 -15 -7 -27 -11 -23 -7 -24 -7 -5 13 10 10 22 15 27 11 5
-5 8 -10 5 -13z m578 -28 c-3 -8 -6 -5 -6 6 -1 11 2 17 5 13 3 -3 4 -12 1 -19z
m-862 -25 c-4 -21 -6 -67 -6 -103 0 -36 -4 -81 -8 -100 -7 -26 -9 -5 -9 78 0
61 4 112 9 112 5 0 8 3 8 8 -3 16 1 42 7 42 3 0 2 -17 -1 -37z m150 -38 c1
-36 -1 -62 -4 -60 -8 8 -19 109 -13 123 9 25 16 0 17 -63z m75 65 c0 -5 -4
-10 -10 -10 -5 0 -10 5 -10 10 0 6 5 10 10 10 6 0 10 -4 10 -10z m800 -20 c0
-5 -5 -10 -11 -10 -5 0 -7 5 -4 10 3 6 8 10 11 10 2 0 4 -4 4 -10z m-790 -20
c4 6 6 -10 4 -38 -3 -35 0 -53 11 -62 17 -14 21 -35 5 -25 -5 3 -10 -1 -10 -9
0 -9 4 -16 10 -16 5 0 10 -10 10 -22 0 -35 10 -118 19 -160 7 -31 6 -37 -3
-29 -7 6 -13 29 -14 52 -1 23 -7 48 -13 55 -9 11 -8 14 0 14 8 0 9 5 2 18 -6
11 -10 27 -11 38 -2 58 -5 80 -11 84 -3 3 -8 32 -12 65 -3 33 -3 51 0 41 4
-14 7 -15 13 -6z m607 4 c-3 -3 -12 -4 -19 -1 -8 3 -5 6 6 6 11 1 17 -2 13 -5z
m-790 -96 c-3 -8 -6 -5 -6 6 -1 11 2 17 5 13 3 -3 4 -12 1 -19z m94 -70 c-9
-32 -9 -31 -10 17 0 38 2 46 10 33 6 -11 6 -29 0 -50z m749 32 c0 -5 -2 -10
-4 -10 -3 0 -8 5 -11 10 -3 6 -1 10 4 10 6 0 11 -4 11 -10z m160 3 c0 -5 -15
-8 -34 -8 -19 0 -32 3 -29 8 2 4 17 7 34 7 16 0 29 -3 29 -7z m-937 -64 c-9
-9 -12 -7 -10 9 1 14 5 18 11 12 7 -7 6 -14 -1 -21z m29 -34 c3 -13 1 -22 -3
-19 -9 5 -13 44 -5 44 2 0 6 -11 8 -25z m-453 -44 c-15 -5 -22 6 -14 19 6 9
10 9 16 -1 5 -8 4 -15 -2 -18z m457 -37 c-3 -9 -2 -24 4 -34 7 -13 6 -19 -3
-23 -10 -4 -13 9 -14 51 0 40 2 50 9 38 5 -9 7 -24 4 -32z m736 14 c-7 -7 -12
-8 -12 -2 0 14 12 26 19 19 2 -3 -1 -11 -7 -17z m-638 -33 c-8 -21 33 -57 59
-51 12 3 17 3 10 0 -8 -3 -9 -15 -3 -35 5 -17 5 -29 -1 -29 -5 0 -9 10 -9 23
0 16 -6 23 -19 23 -10 0 -17 -5 -14 -12 5 -14 -58 -17 -89 -4 -13 5 -17 9 -9
9 8 1 11 7 7 17 -3 8 -2 13 3 9 5 -3 15 8 23 25 7 16 19 30 26 30 7 0 10 5 6
12 -4 7 -3 8 4 4 6 -4 9 -13 6 -21z m-237 -27 c-3 -8 -6 -5 -6 6 -1 11 2 17 5
13 3 -3 4 -12 1 -19z m170 0 c-3 -8 -6 -5 -6 6 -1 11 2 17 5 13 3 -3 4 -12 1
-19z m-33 -59 c-7 -12 -44 -11 -44 1 0 6 -7 10 -15 10 -18 0 -19 14 -3 39 11
18 13 18 40 -11 15 -16 25 -34 22 -39z m-131 26 c-3 -9 -8 -14 -10 -11 -3 3
-2 9 2 15 9 16 15 13 8 -4z m1061 -45 c14 0 56 -53 56 -70 0 -6 5 -8 12 -4 7
4 8 3 4 -5 -9 -13 -26 -5 -26 12 0 7 -9 20 -20 30 -11 9 -20 12 -20 6 0 -5 -4
-7 -10 -4 -5 3 -10 1 -10 -5 0 -7 7 -9 16 -6 12 5 15 2 10 -9 -3 -9 -2 -14 3
-11 12 8 54 -41 48 -57 -3 -9 2 -13 14 -12 29 2 34 14 13 30 -10 8 -15 15 -11
15 13 0 49 -21 88 -51 47 -37 60 -37 28 -1 l-24 27 27 -24 c16 -14 26 -27 23
-29 -3 -3 3 -11 13 -18 16 -12 15 -13 -4 -8 -11 3 -36 19 -55 35 -41 35 -52
36 -80 8 -12 -12 -35 -22 -52 -23 -29 -1 -32 2 -43 49 -7 28 -22 77 -33 109
-26 73 -26 78 0 44 11 -16 26 -28 33 -28z m-1720 -21 c-3 -6 -1 -14 5 -18 8
-5 9 -22 4 -52 -7 -43 -7 -43 -14 -14 -11 48 -10 95 2 95 5 0 7 -5 3 -11z
m996 -109 c0 -5 -5 -10 -11 -10 -5 0 -7 5 -4 10 3 6 8 10 11 10 2 0 4 -4 4
-10z m-300 -20 c0 -5 -12 -10 -26 -10 -14 0 -23 4 -19 10 3 6 15 10 26 10 10
0 19 -4 19 -10z m308 -65 c7 -22 16 -49 21 -60 5 -11 17 -42 27 -70 9 -27 20
-52 24 -55 4 -3 12 -27 19 -54 14 -56 21 -46 -79 -102 -30 -17 -77 -43 -104
-58 -26 -15 -50 -26 -51 -24 -6 5 16 262 24 287 5 17 0 45 -15 87 -13 34 -20
65 -16 68 3 4 0 11 -8 17 -10 6 12 8 65 7 l80 -3 13 -40z m962 -45 c0 -11 4
-20 10 -20 16 0 6 -228 -13 -290 -10 -30 -20 -66 -23 -78 -4 -19 -20 -52 -41
-81 -2 -3 -115 89 -138 113 -5 6 -30 27 -55 47 -25 20 -64 54 -88 76 l-43 40
23 15 c13 8 41 24 64 36 38 20 42 20 59 4 18 -16 18 -16 5 1 -16 22 -18 20 82
69 37 18 67 38 67 44 1 11 57 42 79 43 6 1 12 -8 12 -19z m-653 -130 c9 -13 2
-20 -32 -37 l-44 -21 -27 66 c-52 129 -51 130 25 65 38 -32 73 -65 78 -73z
m193 -177 c32 -27 147 -132 175 -158 11 -11 46 -41 77 -68 l56 -48 47 53 c32
36 37 40 17 13 -33 -44 -80 -90 -90 -90 -8 1 -39 -24 -61 -47 -8 -10 -21 -18
-27 -18 -7 0 -14 -3 -16 -7 -7 -17 -69 -53 -80 -47 -7 4 -8 3 -4 -4 7 -12 -71
-55 -85 -46 -5 3 -9 1 -9 -5 0 -12 -66 -34 -83 -28 -7 3 -4 6 6 6 35 2 58 20
47 39 -13 23 -70 151 -70 158 0 3 -9 26 -21 51 -11 25 -18 52 -14 61 3 9 3 13
-1 9 -8 -7 -48 72 -59 116 -6 22 1 29 67 65 78 43 72 44 128 -5z m-283 -193
c8 -30 21 -68 28 -85 35 -80 85 -211 85 -222 0 -7 6 -13 13 -14 6 0 3 -4 -8
-8 -18 -7 -296 -27 -471 -34 -54 -2 -68 0 -57 8 11 8 16 37 19 101 8 155 2
145 107 203 50 29 99 56 107 62 8 5 29 16 45 24 17 8 44 23 60 35 28 19 31 19
43 2 7 -9 20 -42 29 -72z m-1470 -192 c-3 -8 -6 -5 -6 6 -1 11 2 17 5 13 3 -3
4 -12 1 -19z m1646 -125 c-7 -2 -19 -2 -25 0 -7 3 -2 5 12 5 14 0 19 -2 13 -5z
m-1103 -64 c0 -6 9 -8 20 -4 11 4 20 2 20 -4 0 -14 -14 -13 -75 4 l-50 14 43
0 c23 1 42 -4 42 -10z m550 -9 c0 -5 -2 -10 -4 -10 -3 0 -8 5 -11 10 -3 6 -1
10 4 10 6 0 11 -4 11 -10z m-43 -16 c-3 -3 -12 -4 -19 -1 -8 3 -5 6 6 6 11 1
17 -2 13 -5z"/>
<path d="M2027 2268 c4 -19 3 -20 -6 -8 -10 13 -11 13 -10 0 2 -26 17 -67 18
-47 1 9 5 17 10 17 10 0 2 48 -9 55 -5 3 -6 -5 -3 -17z"/>
<path d="M1950 2265 c0 -8 10 -20 23 -26 19 -11 20 -10 10 3 -7 8 -10 17 -7
20 2 3 -2 8 -11 11 -9 4 -15 1 -15 -8z"/>
<path d="M2916 1619 c4 -8 30 -6 38 2 3 3 -5 5 -19 5 -13 0 -22 -3 -19 -7z"/>
<path d="M2897 1599 c7 -7 15 -10 18 -7 3 3 -2 9 -12 12 -14 6 -15 5 -6 -5z"/>
<path d="M2960 1544 c0 -8 5 -12 10 -9 6 4 8 11 5 16 -9 14 -15 11 -15 -7z"/>
<path d="M3000 1480 c6 -11 12 -20 14 -20 2 0 2 9 -1 20 -3 11 -9 20 -15 20
-5 0 -4 -9 2 -20z"/>
<path d="M3109 1433 c14 -28 17 -28 25 -6 4 10 4 14 0 10 -4 -4 -14 -1 -22 6
-13 10 -14 9 -3 -10z"/>
<path d="M2905 1281 c-3 -5 -1 -12 5 -16 5 -3 10 1 10 9 0 18 -6 21 -15 7z"/>
<path d="M2973 1980 c-6 -14 -8 -27 -4 -30 3 -3 9 -9 12 -13 10 -14 16 16 9
43 l-7 25 -10 -25z"/>
<path d="M3100 1819 c0 -5 5 -7 10 -4 6 3 10 8 10 11 0 2 -4 4 -10 4 -5 0 -10
-5 -10 -11z"/>
<path d="M2021 1604 c0 -11 3 -14 6 -6 3 7 2 16 -1 19 -3 4 -6 -2 -5 -13z"/>
<path d="M1974 1323 c1 -19 5 -28 10 -23 6 6 5 18 -1 32 -10 21 -10 21 -9 -9z"/>
<path d="M1665 1300 c-3 -6 1 -7 9 -4 18 7 21 14 7 14 -6 0 -13 -4 -16 -10z"/>
<path d="M2985 771 c-3 -5 0 -13 6 -17 8 -4 7 -9 -2 -15 -10 -6 -10 -9 -2 -9
17 0 25 17 11 26 -8 5 -6 10 8 15 16 6 16 8 2 8 -9 1 -19 -3 -23 -8z"/>
<path d="M2925 590 c-3 -5 -1 -10 4 -10 6 0 11 5 11 10 0 6 -2 10 -4 10 -3 0
-8 -4 -11 -10z"/>
<path d="M3030 410 c0 -5 5 -10 11 -10 5 0 7 5 4 10 -3 6 -8 10 -11 10 -2 0
-4 -4 -4 -10z"/>
<path d="M3109 389 l-24 -20 28 17 c15 9 27 18 27 20 0 8 -8 4 -31 -17z"/>
<path d="M3026 363 c-6 -14 -5 -15 5 -6 7 7 10 15 7 18 -3 3 -9 -2 -12 -12z"/>
<path d="M3048 338 c9 -9 15 -9 24 0 9 9 7 12 -12 12 -19 0 -21 -3 -12 -12z"/>
<path d="M2787 343 c-9 -2 -15 -9 -12 -14 9 -14 22 -11 29 6 3 8 4 14 3 14 -1
-1 -10 -3 -20 -6z"/>
<path d="M2123 4215 c0 -22 2 -30 4 -17 2 12 2 30 0 40 -3 9 -5 -1 -4 -23z"/>
<path d="M3114 3205 c5 -15 4 -16 -9 -5 -12 10 -15 10 -15 -3 0 -9 5 -19 11
-23 6 -3 9 -14 6 -24 -3 -12 1 -17 12 -15 9 1 17 10 18 21 3 18 2 18 -7 -1 -8
-16 -9 -12 -5 17 4 23 1 39 -6 44 -9 5 -10 2 -5 -11z"/>
<path d="M2113 3035 c0 -22 2 -30 4 -17 2 12 2 30 0 40 -3 9 -5 -1 -4 -23z"/>
<path d="M2550 3001 c0 -14 27 -27 70 -35 22 -5 30 -4 22 2 -8 5 -14 13 -15
18 -1 5 -13 9 -27 10 -14 0 -31 4 -38 8 -7 4 -12 3 -12 -3z"/>
<path d="M2639 2938 c15 -21 31 -23 31 -6 0 6 -3 8 -7 5 -3 -4 -13 -1 -22 6
-14 11 -14 10 -2 -5z"/>
<path d="M2659 2823 c-13 -16 -12 -17 4 -4 16 13 21 21 13 21 -2 0 -10 -8 -17
-17z"/>
<path d="M1402 2760 c0 -14 2 -19 5 -12 2 6 2 18 0 25 -3 6 -5 1 -5 -13z"/>
<path d="M2803 2738 c4 -10 2 -18 -4 -18 -6 0 -7 -5 -3 -11 5 -8 10 -6 16 6 7
12 6 21 -2 28 -10 9 -12 8 -7 -5z"/>
<path d="M2711 2654 c0 -11 3 -14 6 -6 3 7 2 16 -1 19 -3 4 -6 -2 -5 -13z"/>
<path d="M2705 2494 c-14 -15 -18 -15 -26 -3 -5 8 -9 10 -10 4 0 -5 -2 -18 -4
-28 -3 -14 -1 -16 10 -7 8 7 20 8 26 4 7 -4 9 -3 5 4 -3 6 2 15 11 21 10 5 15
12 12 16 -4 3 -14 -2 -24 -11z"/>
<path d="M1628 2483 c6 -2 10 -9 7 -14 -4 -5 -1 -17 5 -26 9 -15 10 -14 4 6
-5 18 -3 22 7 15 12 -6 12 -5 0 9 -7 9 -19 17 -25 16 -7 0 -6 -2 2 -6z"/>
<path d="M2631 2424 c0 -11 3 -14 6 -6 3 7 2 16 -1 19 -3 4 -6 -2 -5 -13z"/>
<path d="M2388 2407 c4 -15 2 -18 -9 -12 -8 5 -11 4 -6 0 4 -5 -5 -17 -20 -27
-16 -10 -24 -18 -20 -18 5 0 21 9 37 20 30 21 45 57 25 57 -7 0 -10 -8 -7 -20z"/>
<path d="M1646 2407 c3 -10 9 -15 12 -12 3 3 0 11 -7 18 -10 9 -11 8 -5 -6z"/>
<path d="M2690 2402 c6 -13 14 -21 18 -18 3 4 -2 14 -12 24 -18 16 -18 16 -6
-6z"/>
<path d="M1610 2398 c0 -7 6 -30 13 -50 10 -28 16 -35 27 -27 9 5 10 9 3 9 -6
0 -14 18 -18 40 -6 36 -25 57 -25 28z"/>
<path d="M2630 2380 c0 -5 5 -10 11 -10 5 0 7 5 4 10 -3 6 -8 10 -11 10 -2 0
-4 -4 -4 -10z"/>
<path d="M2381 2360 c-9 -5 -4 -7 13 -7 29 0 32 2 13 10 -8 3 -20 2 -26 -3z"/>
<path d="M1500 2340 c0 -6 7 -10 15 -10 8 0 15 2 15 4 0 2 -7 6 -15 10 -8 3
-15 1 -15 -4z"/>
<path d="M1552 2305 c0 -16 2 -22 5 -12 2 9 2 23 0 30 -3 6 -5 -1 -5 -18z"/>
<path d="M2352 2308 c2 -6 10 -14 16 -16 7 -2 10 2 6 12 -7 18 -28 22 -22 4z"/>
<path d="M1552 2250 c0 -14 2 -19 5 -12 2 6 2 18 0 25 -3 6 -5 1 -5 -13z"/>
<path d="M1276 1685 c-3 -8 0 -17 6 -21 6 -4 8 -3 4 4 -3 5 -1 12 6 14 8 3 9
6 1 11 -6 4 -13 0 -17 -8z"/>
<path d="M1146 1455 c-3 -9 -6 -22 -5 -28 0 -7 5 -1 10 12 5 13 8 26 5 28 -2
2 -6 -3 -10 -12z"/>
<path d="M3430 1440 c6 -11 13 -20 16 -20 2 0 0 9 -6 20 -6 11 -13 20 -16 20
-2 0 0 -9 6 -20z"/>
<path d="M1127 1253 c-24 -84 -35 -160 -26 -175 6 -9 8 -7 8 7 -1 26 6 64 26
144 20 83 15 101 -8 24z"/>
<path d="M1052 1060 c0 -14 2 -19 5 -12 2 6 2 18 0 25 -3 6 -5 1 -5 -13z"/>
<path d="M1051 834 c0 -11 3 -14 6 -6 3 7 2 16 -1 19 -3 4 -6 -2 -5 -13z"/>
<path d="M1086 703 c-6 -14 -5 -15 5 -6 7 7 10 15 7 18 -3 3 -9 -2 -12 -12z"/>
<path d="M1100 636 c0 -2 7 -7 16 -10 8 -3 12 -2 9 4 -6 10 -25 14 -25 6z"/>
<path d="M1760 401 c0 -6 4 -13 10 -16 6 -3 7 1 4 9 -7 18 -14 21 -14 7z"/>
<path d="M2118 153 c12 -2 32 -2 45 0 12 2 2 4 -23 4 -25 0 -35 -2 -22 -4z"/>
</g>
</svg>
